<svg id="Layer_1" data-name="Layer 1" xmlns="http://www.w3.org/2000/svg" xmlns:xlink="http://www.w3.org/1999/xlink" viewBox="0 0 600 628.33"><defs><style>.cls-1,.cls-11,.cls-30,.cls-7{fill:none;}.cls-2{clip-path:url(#clip-path);}.cls-3{fill:#92e3a9;}.cls-4{opacity:0.7;}.cls-5{clip-path:url(#clip-path-3);}.cls-6{fill:#fff;}.cls-11,.cls-7{stroke:#263238;}.cls-11,.cls-30,.cls-7{stroke-linecap:round;stroke-linejoin:round;}.cls-30,.cls-7{stroke-width:1.48px;}.cls-8{clip-path:url(#clip-path-5);}.cls-9{opacity:0.2;}.cls-10{clip-path:url(#clip-path-6);}.cls-11{stroke-width:2.96px;}.cls-12{fill:#263238;}.cls-13{clip-path:url(#clip-path-9);}.cls-14{clip-path:url(#clip-path-10);}.cls-15{fill:#757575;}.cls-16{fill:#999;}.cls-17{clip-path:url(#clip-path-15);}.cls-18{clip-path:url(#clip-path-16);}.cls-19{clip-path:url(#clip-path-19);}.cls-20{clip-path:url(#clip-path-20);}.cls-21{clip-path:url(#clip-path-23);}.cls-22{opacity:0.3;}.cls-23{clip-path:url(#clip-path-24);}.cls-24{clip-path:url(#clip-path-26);}.cls-25{clip-path:url(#clip-path-27);}.cls-26{opacity:0.4;}.cls-27{clip-path:url(#clip-path-30);}.cls-28{clip-path:url(#clip-path-31);}.cls-29{clip-path:url(#clip-path-32);}.cls-30{stroke:#fff;}.cls-31{opacity:0.6;}.cls-32{clip-path:url(#clip-path-34);}.cls-33{clip-path:url(#clip-path-35);}.cls-34{clip-path:url(#clip-path-36);}.cls-35{clip-path:url(#clip-path-37);}.cls-36{clip-path:url(#clip-path-38);}.cls-37{clip-path:url(#clip-path-43);}.cls-38{opacity:0.5;}.cls-39{clip-path:url(#clip-path-44);}.cls-40{clip-path:url(#clip-path-47);}.cls-41{clip-path:url(#clip-path-48);}.cls-42{clip-path:url(#clip-path-51);}.cls-43{clip-path:url(#clip-path-52);}.cls-44{clip-path:url(#clip-path-55);}.cls-45{clip-path:url(#clip-path-56);}.cls-46{clip-path:url(#clip-path-59);}.cls-47{clip-path:url(#clip-path-60);}</style><clipPath id="clip-path" transform="translate(0 -1)"><rect class="cls-1" y="1" width="600" height="628.33"/></clipPath><clipPath id="clip-path-3" transform="translate(0 -1)"><rect class="cls-1" x="16.42" y="1" width="562.98" height="617.63"/></clipPath><clipPath id="clip-path-5" transform="translate(0 -1)"><polygon class="cls-1" points="172.19 466.64 171.16 486.32 294.67 492.81 304.42 307.18 258.68 304.77 180.91 300.69 172.19 466.64"/></clipPath><clipPath id="clip-path-6" transform="translate(0 -1)"><rect class="cls-1" x="172.19" y="300.69" width="93.68" height="165.96"/></clipPath><clipPath id="clip-path-9" transform="translate(0 -1)"><polygon class="cls-1" points="102.76 280.57 53.42 294.28 103.19 473.39 222.35 440.27 217.74 423.68 172.58 261.18 102.76 280.57"/></clipPath><clipPath id="clip-path-10" transform="translate(0 -1)"><rect class="cls-1" x="102.76" y="261.18" width="114.98" height="168.46"/></clipPath><clipPath id="clip-path-15" transform="translate(0 -1)"><path class="cls-1" d="M429,340.06a14.29,14.29,0,0,0-13,10l-18.12,66.84c-1.5,5.52,1.92,10,7.63,10H508.74a14.26,14.26,0,0,0,13-10L539.9,350c1.49-5.5-1.92-10-7.63-10Z"/></clipPath><clipPath id="clip-path-16" transform="translate(0 -1)"><rect class="cls-1" x="397.44" y="340.06" width="142.81" height="86.81"/></clipPath><clipPath id="clip-path-19" transform="translate(0 -1)"><path class="cls-1" d="M364,471.25a9,9,0,0,0-9,9V492.4h133V480.21a8.94,8.94,0,0,0-9-9Z"/></clipPath><clipPath id="clip-path-20" transform="translate(0 -1)"><rect class="cls-1" x="355.08" y="471.25" width="132.72" height="21.16"/></clipPath><clipPath id="clip-path-23" transform="translate(0 -1)"><path class="cls-1" d="M408.16,421.82l-3.23,8S329.29,442,317.1,468.67s32.11,134.1,32.11,134.1a60,60,0,0,0,13-.19c4.7-.63,9.67-2,13.05-5,0,0-30.91-102.05-24.53-108.54,11.72-11.92,61-19.66,86.91-23,9.66-1.24,16.08-1.86,16.08-1.86l-6.46-47.92Z"/></clipPath><clipPath id="clip-path-24" transform="translate(0 -1)"><rect class="cls-1" x="338.22" y="437.86" width="99.46" height="164.72"/></clipPath><clipPath id="clip-path-26" transform="translate(0 -1)"><path class="cls-1" d="M328.87,392.45S341,394,347,393.25s43.89-27.45,43.89-27.45l-22.28-15s-46.24,40.53-39.74,41.65"/></clipPath><clipPath id="clip-path-27" transform="translate(0 -1)"><rect class="cls-1" x="328.24" y="350.8" width="62.65" height="42.65"/></clipPath><clipPath id="clip-path-30" transform="translate(0 -1)"><rect class="cls-1" x="350.42" y="332.33" width="53.5" height="48.32"/></clipPath><clipPath id="clip-path-31" transform="translate(0 -1)"><path class="cls-1" d="M325.73,623.09l20.49,1.75c37.16,2.64,35.11-5.7,35.11-5.7L369,586.8Z"/></clipPath><clipPath id="clip-path-32" transform="translate(0 -1)"><rect class="cls-1" x="325.73" y="586.8" width="55.62" height="38.56"/></clipPath><clipPath id="clip-path-34" transform="translate(0 -1)"><rect class="cls-1" x="382.35" y="317.44" width="104.64" height="111.55"/></clipPath><clipPath id="clip-path-35" transform="translate(0 -1)"><rect class="cls-1" x="400.15" y="316.4" width="42.6" height="48.32"/></clipPath><clipPath id="clip-path-36" transform="translate(0 -1)"><rect class="cls-1" x="451.39" y="330.61" width="39.02" height="69.11"/></clipPath><clipPath id="clip-path-37" transform="translate(0 -1)"><path class="cls-1" d="M403.19,329.67l3.21,5.11,2.5,4a32.72,32.72,0,0,0-.4,3.77,27.22,27.22,0,0,0,1.51,11s24.13-20.91,22.34-27.54S406.9,314.8,406.9,314.8Z"/></clipPath><clipPath id="clip-path-38" transform="translate(0 -1)"><rect class="cls-1" x="406.4" y="328.29" width="11.57" height="14.22"/></clipPath><clipPath id="clip-path-43" transform="translate(0 -1)"><path class="cls-1" d="M462.8,563c-13,21.75-23.35,52.35-7.31,56.16l15.25-.57,29.35-10.08-3.08-6s-25.7,13.62-30.09,13.62-10.11,1.1-12.53-.66,8.45-41.3,31.69-54.48,8.08-30.6,8.08-30.6A101,101,0,0,0,462.8,563"/></clipPath><clipPath id="clip-path-44" transform="translate(0 -1)"><rect class="cls-1" x="447.31" y="530.41" width="52.77" height="88.73"/></clipPath><clipPath id="clip-path-47" transform="translate(0 -1)"><path class="cls-1" d="M482.37,523c-2.35,4.57-6.23,96.19,14.2,96.19l69.61-.57c12.93-7.25-10.5-98.58-16.35-100.5-1.42-.47-6-.69-12.22-.69-19.16,0-53.47,2.12-55.24,5.57"/></clipPath><clipPath id="clip-path-48" transform="translate(0 -1)"><rect class="cls-1" x="480.44" y="517.38" width="89.58" height="101.77"/></clipPath><clipPath id="clip-path-51" transform="translate(0 -1)"><path class="cls-1" d="M534.72,540.24l-6.7,6.22a1.16,1.16,0,0,0,0,1.69l8.64,8.19a1.15,1.15,0,0,0,1.64-.06l6.77-7.3a1.16,1.16,0,0,0-.12-1.68l-8.7-7.11a1.16,1.16,0,0,0-1.52,0"/></clipPath><clipPath id="clip-path-52" transform="translate(0 -1)"><rect class="cls-1" x="527.65" y="539.93" width="17.71" height="16.72"/></clipPath><clipPath id="clip-path-55" transform="translate(0 -1)"><path class="cls-1" d="M507.56,577.48s-2.2,27.25,3.07,32.52,44.6,6.15,55.55,1.54,7.29-22.63,5.53-27.9a16.66,16.66,0,0,0-5.53-7.91c-19.3,5-58.62,1.75-58.62,1.75"/></clipPath><clipPath id="clip-path-56" transform="translate(0 -1)"><rect class="cls-1" x="507.11" y="575.73" width="66.63" height="38.8"/></clipPath><clipPath id="clip-path-59" transform="translate(0 -1)"><path class="cls-1" d="M478.12,580.94c-1.32-.05-2.42,22.47,4.25,26a13.73,13.73,0,0,0,12.67,0c-2.64-5.93-4-32.07-4-32.07s-11.64,6.15-13,6.09"/></clipPath><clipPath id="clip-path-60" transform="translate(0 -1)"><rect class="cls-1" x="477.12" y="574.85" width="17.91" height="33.64"/></clipPath></defs><title>imf-for-main</title><g class="cls-2"><g class="cls-2"><path class="cls-3" d="M544.59,327.6c-.07-113.16,16.94-143.12-44.32-238.72S288.63-27.88,175,43,30.65,205.11,30.65,205.11s-41.24,106.5,16.71,213.78c53,98.12,157.4,153.87,247.94,199.74H526.81a163.23,163.23,0,0,0,35.39-41.87c47.15-79.35-17.53-136-17.61-249.16" transform="translate(0 -1)"/><g class="cls-4"><g class="cls-5"><path class="cls-6" d="M544.59,327.6c-.07-113.16,16.94-143.12-44.32-238.72S288.63-27.88,175,43,30.65,205.11,30.65,205.11s-41.24,106.5,16.71,213.78c53,98.12,157.4,153.87,247.94,199.74H526.81a163.23,163.23,0,0,0,35.39-41.87c47.15-79.35-17.53-136-17.61-249.16" transform="translate(0 -1)"/></g></g></g><g class="cls-2"><path class="cls-7" d="M95.16,78.5a42.81,42.81,0,0,1,22.55-34.41" transform="translate(0 -1)"/><path class="cls-7" d="M127.88,123.6A42.85,42.85,0,0,1,101.76,105" transform="translate(0 -1)"/><path class="cls-7" d="M180.61,85.32a42.87,42.87,0,0,1-46.14,39.32" transform="translate(0 -1)"/><path class="cls-7" d="M141.3,39.19a42.88,42.88,0,0,1,39.06,36.9" transform="translate(0 -1)"/><path class="cls-7" d="M156.37,114.91a37.82,37.82,0,0,1-56.18-36" transform="translate(0 -1)"/><path class="cls-7" d="M102.59,68.3a37.82,37.82,0,1,1,63.51,38.79" transform="translate(0 -1)"/><polyline class="cls-7" points="134.17 53.7 137.88 80.91 158.81 74.41"/><path class="cls-7" d="M534.78,213a29.68,29.68,0,0,1-20.25-51.63" transform="translate(0 -1)"/><path class="cls-7" d="M562.59,192.87a29.62,29.62,0,0,1-18.23,18.41" transform="translate(0 -1)"/><path class="cls-7" d="M524.65,155.31a29.67,29.67,0,0,1,37.84,18.13" transform="translate(0 -1)"/><path class="cls-7" d="M549.15,161.6a26.18,26.18,0,1,1-34,39.32" transform="translate(0 -1)"/><path class="cls-7" d="M509.81,192a26.19,26.19,0,0,1,31.29-34" transform="translate(0 -1)"/><polyline class="cls-7" points="524.5 166.13 534.5 182.3 525.39 194.13"/><path class="cls-7" d="M254.09,547.36a23.75,23.75,0,0,1,10.46-19.7" transform="translate(0 -1)"/><path class="cls-7" d="M295.14,563.76A23.81,23.81,0,0,1,255.35,555" transform="translate(0 -1)"/><path class="cls-7" d="M277.89,523.57a23.8,23.8,0,0,1,23.8,23.79" transform="translate(0 -1)"/><path class="cls-7" d="M277.89,568.36a21,21,0,0,1-21-21" transform="translate(0 -1)"/><path class="cls-7" d="M261.54,534.19a21,21,0,1,1,26.56,31.52" transform="translate(0 -1)"/><polyline class="cls-7" points="274.63 560.63 277.89 546.36 273.34 534.7"/><line class="cls-7" x1="0.74" y1="618.14" x2="599.26" y2="618.14"/></g><polygon class="cls-6" points="304.42 306.18 294.67 491.81 171.16 485.32 172.19 465.64 180.91 299.69 258.68 303.77 304.42 306.18"/><g class="cls-8"><g class="cls-9"><g class="cls-10"><g class="cls-4"><g class="cls-10"><polygon points="265.87 414.93 238.04 417.23 246.16 452.27 172.19 465.64 180.91 299.69 258.68 303.77 265.87 414.93"/></g></g></g></g></g><polygon class="cls-7" points="304.42 306.18 294.67 491.81 171.16 485.32 172.19 465.64 180.91 299.69 258.68 303.77 304.42 306.18"/><line class="cls-11" x1="189.63" y1="312.39" x2="221.77" y2="314.07"/><line class="cls-11" x1="189.3" y1="318.56" x2="211.16" y2="319.7"/><line class="cls-11" x1="196.37" y1="333.53" x2="288.82" y2="338.39"/><line class="cls-11" x1="196.05" y1="339.71" x2="288.5" y2="344.56"/><line class="cls-11" x1="195.67" y1="346.9" x2="274.52" y2="351.05"/><rect class="cls-7" x="195.52" y="354.67" width="7.54" height="7.54" transform="translate(-169.11 537.66) rotate(-87)"/><rect class="cls-7" x="209.15" y="355.39" width="7.54" height="7.54" transform="translate(-156.94 551.88) rotate(-86.98)"/><rect class="cls-7" x="222.78" y="356.1" width="7.54" height="7.54" transform="matrix(0.05, -1, 1, 0.05, -144.71, 566.24)"/><rect class="cls-7" x="236.4" y="356.82" width="7.54" height="7.54" transform="translate(-132.55 580.46) rotate(-86.98)"/><g class="cls-2"><path class="cls-12" d="M191.45,334.28a1.88,1.88,0,1,1-1.78-2,1.89,1.89,0,0,1,1.78,2" transform="translate(0 -1)"/><line class="cls-11" x1="194.48" y1="369.53" x2="286.93" y2="374.38"/><line class="cls-11" x1="194.16" y1="375.7" x2="286.61" y2="380.55"/><line class="cls-11" x1="193.78" y1="382.9" x2="272.63" y2="387.04"/><rect class="cls-7" x="193.63" y="390.67" width="7.54" height="7.54" transform="translate(-206.84 569.88) rotate(-87)"/><rect class="cls-7" x="207.26" y="391.38" width="7.54" height="7.54" transform="translate(-194.68 584.09) rotate(-86.98)"/><rect class="cls-7" x="220.88" y="392.1" width="7.54" height="7.54" transform="translate(-182.44 598.46) rotate(-87)"/><rect class="cls-7" x="234.51" y="392.81" width="7.54" height="7.54" transform="translate(-170.29 612.67) rotate(-86.98)"/><path class="cls-12" d="M189.56,370.27a1.89,1.89,0,1,1-1.78-2,1.88,1.88,0,0,1,1.78,2" transform="translate(0 -1)"/><line class="cls-11" x1="192.59" y1="405.52" x2="285.04" y2="410.38"/><line class="cls-11" x1="192.27" y1="411.69" x2="284.72" y2="416.55"/><line class="cls-11" x1="191.89" y1="418.89" x2="270.74" y2="423.03"/><rect class="cls-7" x="191.74" y="426.66" width="7.54" height="7.54" transform="translate(-244.61 602.02) rotate(-86.98)"/><rect class="cls-7" x="205.36" y="427.37" width="7.54" height="7.54" transform="translate(-232.41 616.3) rotate(-86.98)"/><rect class="cls-7" x="218.99" y="428.09" width="7.54" height="7.54" transform="translate(-220.22 630.59) rotate(-86.98)"/><rect class="cls-7" x="232.62" y="428.81" width="7.54" height="7.54" transform="translate(-208.02 644.89) rotate(-86.98)"/><path class="cls-12" d="M187.67,406.26a1.89,1.89,0,1,1-1.78-2,1.9,1.9,0,0,1,1.78,2" transform="translate(0 -1)"/><line class="cls-11" x1="190.64" y1="442.54" x2="283.1" y2="447.4"/><line class="cls-11" x1="190.32" y1="448.71" x2="282.77" y2="453.57"/><line class="cls-11" x1="189.94" y1="455.91" x2="268.8" y2="460.06"/><rect class="cls-7" x="189.79" y="463.68" width="7.54" height="7.54" transform="translate(-283.42 635.15) rotate(-86.98)"/><rect class="cls-7" x="203.42" y="464.4" width="7.54" height="7.54" transform="translate(-271.19 649.53) rotate(-87)"/><rect class="cls-7" x="217.05" y="465.11" width="7.54" height="7.54" transform="translate(-259.03 663.73) rotate(-86.98)"/><rect class="cls-7" x="230.68" y="465.83" width="7.54" height="7.54" transform="translate(-246.79 678.11) rotate(-87)"/><path class="cls-12" d="M185.72,443.29a1.88,1.88,0,1,1-1.78-2,1.88,1.88,0,0,1,1.78,2" transform="translate(0 -1)"/><polyline class="cls-11" points="198.26 356.62 199.24 358.3 203.25 353.87"/><polyline class="cls-11" points="223.65 393.59 224.63 395.27 228.64 390.85"/><polyline class="cls-11" points="236.39 431.57 237.37 433.26 241.37 428.83"/><polyline class="cls-11" points="206.21 465.48 207.19 467.17 211.19 462.74"/><polygon class="cls-6" points="222.35 439.27 103.19 472.39 53.42 293.28 102.76 279.57 172.58 260.18 217.74 422.68 222.35 439.27"/></g><g class="cls-13"><g class="cls-9"><g class="cls-14"><g class="cls-4"><g class="cls-14"><polygon points="217.74 422.68 125.6 428.64 102.76 279.57 172.58 260.18 217.74 422.68"/></g></g></g></g></g><g class="cls-2"><polygon class="cls-7" points="222.35 439.27 103.19 472.39 53.42 293.28 102.76 279.57 172.58 260.18 217.74 422.68 222.35 439.27"/><line class="cls-11" x1="65.72" y1="302.55" x2="96.73" y2="293.93"/><line class="cls-11" x1="67.37" y1="308.5" x2="88.46" y2="302.64"/><line class="cls-11" x1="78.83" y1="320.46" x2="168.03" y2="295.67"/><line class="cls-11" x1="80.49" y1="326.41" x2="169.69" y2="301.63"/><line class="cls-11" x1="82.42" y1="333.36" x2="158.5" y2="312.22"/><rect class="cls-7" x="85.43" y="339.43" width="7.54" height="7.54" transform="matrix(0.96, -0.27, 0.27, 0.96, -88.62, 35.41)"/><rect class="cls-7" x="98.58" y="335.77" width="7.54" height="7.54" transform="translate(-87.17 38.79) rotate(-15.53)"/><rect class="cls-7" x="111.73" y="332.12" width="7.54" height="7.54" transform="translate(-85.65 42.14) rotate(-15.52)"/><rect class="cls-7" x="124.88" y="328.47" width="7.54" height="7.54" transform="matrix(0.96, -0.27, 0.27, 0.96, -84.19, 45.53)"/><path class="cls-12" d="M74.09,322.78a1.89,1.89,0,1,1-2.32-1.31,1.89,1.89,0,0,1,2.32,1.31" transform="translate(0 -1)"/><line class="cls-11" x1="88.48" y1="355.19" x2="177.68" y2="330.4"/><line class="cls-11" x1="90.14" y1="361.14" x2="179.34" y2="336.35"/><line class="cls-11" x1="92.07" y1="368.09" x2="168.15" y2="346.94"/><rect class="cls-7" x="95.08" y="374.16" width="7.54" height="7.54" transform="translate(-97.59 39.27) rotate(-15.53)"/><rect class="cls-7" x="108.23" y="370.5" width="7.54" height="7.54" transform="translate(-96.11 42.64) rotate(-15.53)"/><rect class="cls-7" x="121.38" y="366.85" width="7.54" height="7.54" transform="translate(-94.65 46.03) rotate(-15.53)"/><rect class="cls-7" x="134.53" y="363.19" width="7.54" height="7.54" transform="translate(-93.19 49.42) rotate(-15.53)"/><path class="cls-12" d="M83.73,357.51a1.88,1.88,0,1,1-2.32-1.32,1.88,1.88,0,0,1,2.32,1.32" transform="translate(0 -1)"/><line class="cls-11" x1="98.13" y1="389.91" x2="187.33" y2="365.13"/><line class="cls-11" x1="99.79" y1="395.87" x2="188.99" y2="371.08"/><line class="cls-11" x1="101.72" y1="402.81" x2="177.8" y2="381.67"/><rect class="cls-7" x="104.73" y="408.88" width="7.54" height="7.54" transform="translate(-106.51 43.11) rotate(-15.53)"/><rect class="cls-7" x="117.88" y="405.23" width="7.54" height="7.54" transform="matrix(0.96, -0.27, 0.27, 0.96, -105.01, 46.46)"/><rect class="cls-7" x="131.03" y="401.58" width="7.54" height="7.54" transform="translate(-103.53 49.84) rotate(-15.52)"/><rect class="cls-7" x="144.18" y="397.92" width="7.54" height="7.54" transform="matrix(0.96, -0.27, 0.27, 0.96, -102.09, 53.23)"/><path class="cls-12" d="M93.38,392.23a1.88,1.88,0,1,1-2.31-1.31,1.87,1.87,0,0,1,2.31,1.31" transform="translate(0 -1)"/><line class="cls-11" x1="108.06" y1="425.63" x2="197.26" y2="400.85"/><line class="cls-11" x1="109.71" y1="431.59" x2="198.91" y2="406.8"/><line class="cls-11" x1="111.64" y1="438.53" x2="187.72" y2="417.39"/><rect class="cls-7" x="114.65" y="444.6" width="7.54" height="7.54" transform="translate(-115.71 47.07) rotate(-15.53)"/><rect class="cls-7" x="127.8" y="440.95" width="7.54" height="7.54" transform="translate(-114.26 50.46) rotate(-15.53)"/><rect class="cls-7" x="140.95" y="437.29" width="7.54" height="7.54" transform="translate(-112.72 53.79) rotate(-15.52)"/><rect class="cls-7" x="154.1" y="433.64" width="7.54" height="7.54" transform="translate(-111.27 57.18) rotate(-15.52)"/><path class="cls-12" d="M103.31,428a1.88,1.88,0,1,1-2.32-1.31,1.88,1.88,0,0,1,2.32,1.31" transform="translate(0 -1)"/><polyline class="cls-11" points="100.35 338.28 101.81 339.57 104.2 334.1"/><polyline class="cls-11" points="96.78 377.03 98.24 378.32 100.63 372.85"/><polyline class="cls-11" points="106.42 411.4 107.88 412.68 110.27 407.21"/><polyline class="cls-11" points="142.63 439.55 144.09 440.84 146.48 435.37"/><rect class="cls-6" x="119.47" y="225.31" width="123.68" height="185.89" transform="translate(-29.6 17.79) rotate(-5.49)"/><rect class="cls-7" x="119.47" y="225.31" width="123.68" height="185.89" transform="translate(-29.6 17.79) rotate(-5.49)"/><line class="cls-11" x1="121.37" y1="241.92" x2="153.4" y2="238.84"/><line class="cls-11" x1="121.96" y1="248.07" x2="143.74" y2="245.98"/><line class="cls-11" x1="131.16" y1="261.84" x2="223.32" y2="252.99"/><line class="cls-11" x1="131.75" y1="267.99" x2="223.91" y2="259.14"/><line class="cls-11" x1="132.44" y1="275.17" x2="211.04" y2="267.62"/><rect class="cls-7" x="133.8" y="282.29" width="7.54" height="7.54" transform="translate(-26.72 13.46) rotate(-5.49)"/><rect class="cls-7" x="147.39" y="280.98" width="7.54" height="7.54" transform="translate(-26.53 14.75) rotate(-5.49)"/><rect class="cls-7" x="160.97" y="279.68" width="7.54" height="7.54" transform="translate(-26.34 16.05) rotate(-5.49)"/><rect class="cls-7" x="174.56" y="278.37" width="7.54" height="7.54" transform="translate(-26.16 17.34) rotate(-5.49)"/><path class="cls-12" d="M126.25,263.31a1.88,1.88,0,1,1-2-1.69,1.89,1.89,0,0,1,2,1.69" transform="translate(0 -1)"/><line class="cls-11" x1="134.61" y1="297.72" x2="226.76" y2="288.87"/><line class="cls-11" x1="135.2" y1="303.87" x2="227.35" y2="295.02"/><line class="cls-11" x1="135.89" y1="311.05" x2="214.48" y2="303.49"/><rect class="cls-7" x="137.25" y="318.16" width="7.54" height="7.54" transform="translate(-30.13 13.96) rotate(-5.49)"/><rect class="cls-7" x="150.84" y="316.86" width="7.54" height="7.54" transform="translate(-29.88 15.21) rotate(-5.47)"/><rect class="cls-7" x="164.42" y="315.55" width="7.54" height="7.54" transform="translate(-29.76 16.54) rotate(-5.49)"/><rect class="cls-7" x="178.01" y="314.25" width="7.54" height="7.54" transform="translate(-29.57 17.83) rotate(-5.49)"/><path class="cls-12" d="M129.7,299.19a1.88,1.88,0,1,1-2.06-1.69,1.89,1.89,0,0,1,2.06,1.69" transform="translate(0 -1)"/><line class="cls-11" x1="138.05" y1="333.6" x2="230.21" y2="324.75"/><line class="cls-11" x1="138.64" y1="339.75" x2="230.8" y2="330.9"/><line class="cls-11" x1="139.33" y1="346.92" x2="217.93" y2="339.37"/><rect class="cls-7" x="140.7" y="354.04" width="7.54" height="7.54" transform="translate(-33.48 14.41) rotate(-5.47)"/><rect class="cls-7" x="154.28" y="352.74" width="7.54" height="7.54" transform="translate(-33.36 15.74) rotate(-5.49)"/><rect class="cls-7" x="167.87" y="351.43" width="7.54" height="7.54" transform="translate(-33.17 17.03) rotate(-5.49)"/><rect class="cls-7" x="181.45" y="350.13" width="7.54" height="7.54" transform="translate(-32.98 18.33) rotate(-5.49)"/><path class="cls-12" d="M133.15,335.07a1.89,1.89,0,0,1-1.7,2.05,1.88,1.88,0,0,1-.36-3.75,1.89,1.89,0,0,1,2.06,1.7" transform="translate(0 -1)"/><line class="cls-11" x1="141.6" y1="370.5" x2="233.75" y2="361.65"/><line class="cls-11" x1="142.19" y1="376.65" x2="234.34" y2="367.8"/><line class="cls-11" x1="142.88" y1="383.83" x2="221.48" y2="376.28"/><rect class="cls-7" x="144.24" y="390.94" width="7.54" height="7.54" transform="translate(-37.06 14.96) rotate(-5.49)"/><rect class="cls-7" x="157.83" y="389.64" width="7.54" height="7.54" transform="translate(-36.87 16.25) rotate(-5.49)"/><rect class="cls-7" x="171.41" y="388.33" width="7.54" height="7.54" transform="translate(-36.61 17.5) rotate(-5.47)"/><rect class="cls-7" x="185" y="387.03" width="7.54" height="7.54" transform="translate(-36.5 18.84) rotate(-5.49)"/><path class="cls-12" d="M136.69,372a1.88,1.88,0,1,1-2.06-1.69,1.89,1.89,0,0,1,2.06,1.69" transform="translate(0 -1)"/><polyline class="cls-11" points="136.44 284.39 137.66 285.91 140.96 280.94"/><polyline class="cls-11" points="167.01 317.21 168.23 318.73 171.54 313.76"/><polyline class="cls-11" points="156.95 355.14 158.16 356.66 161.47 351.69"/><polyline class="cls-11" points="187.46 389.15 188.68 390.67 191.99 385.7"/></g><g class="cls-2"><path class="cls-6" d="M384.54,146.86H308.11A10.17,10.17,0,0,0,297.94,157v65.65a10.17,10.17,0,0,0,10.17,10.18H342l19.41,23.4-4.87-23.4h28a10.18,10.18,0,0,0,10.18-10.18V157a10.18,10.18,0,0,0-10.18-10.18" transform="translate(0 -1)"/><path class="cls-7" d="M384.54,146.86H308.11A10.17,10.17,0,0,0,297.94,157v65.65a10.17,10.17,0,0,0,10.17,10.18H342l19.41,23.4-4.87-23.4h28a10.18,10.18,0,0,0,10.18-10.18V157A10.18,10.18,0,0,0,384.54,146.86Z" transform="translate(0 -1)"/><path class="cls-3" d="M352.44,182.91v-7l-5.21-.45a14.45,14.45,0,0,0-1.29-3.12l3.37-4-4.92-4.92-4,3.36a14,14,0,0,0-3.12-1.29l-.45-5.21h-6.95l-.45,5.21a14,14,0,0,0-3.12,1.29l-4-3.36-4.91,4.92,3.36,4a14.25,14.25,0,0,0-1.29,3.12l-5.21.45v7l5.21.44a14.33,14.33,0,0,0,1.29,3.13l-3.36,4,4.91,4.92,4-3.36a14.51,14.51,0,0,0,3.12,1.28l.45,5.21h6.95l.45-5.21a14.51,14.51,0,0,0,3.12-1.28l4,3.36,4.92-4.92-3.37-4a14.33,14.33,0,0,0,1.29-3.13Zm-19.09,4.6a8.08,8.08,0,1,1,8.08-8.08,8.08,8.08,0,0,1-8.08,8.08" transform="translate(0 -1)"/><path class="cls-3" d="M375.45,198.43v-5l-3.71-.32a10.09,10.09,0,0,0-.92-2.22l2.4-2.85-3.5-3.49L366.87,187a10.09,10.09,0,0,0-2.22-.92l-.32-3.7h-4.94l-.32,3.7a9.89,9.89,0,0,0-2.22.92L354,184.6l-3.5,3.49,2.39,2.85a10.57,10.57,0,0,0-.91,2.22l-3.71.32v5l3.71.31a10.65,10.65,0,0,0,.91,2.23l-2.39,2.84,3.5,3.5,2.84-2.39a10.14,10.14,0,0,0,2.23.91l.32,3.71h4.94l.32-3.71a10.06,10.06,0,0,0,2.22-.91l2.85,2.39,3.5-3.5-2.4-2.84a10.17,10.17,0,0,0,.92-2.23Zm-13.59,3.27a5.75,5.75,0,1,1,5.75-5.75,5.74,5.74,0,0,1-5.75,5.75" transform="translate(0 -1)"/><path class="cls-3" d="M351.24,210v-3.52l-2.63-.23a7.54,7.54,0,0,0-.66-1.58l1.71-2-2.49-2.49-2,1.7a7.1,7.1,0,0,0-1.58-.65l-.23-2.64h-3.52l-.22,2.64a7.1,7.1,0,0,0-1.58.65l-2-1.7-2.49,2.49,1.71,2a7.54,7.54,0,0,0-.66,1.58l-2.63.23V210l2.63.23a7.33,7.33,0,0,0,.66,1.58l-1.71,2,2.49,2.49,2-1.7a7.1,7.1,0,0,0,1.58.65l.22,2.64h3.52l.23-2.64a7.1,7.1,0,0,0,1.58-.65l2,1.7,2.49-2.49-1.71-2a7.33,7.33,0,0,0,.66-1.58Zm-9.66,2.33a4.09,4.09,0,1,1,4.09-4.09,4.1,4.1,0,0,1-4.09,4.09" transform="translate(0 -1)"/></g><polygon class="cls-15" points="344.29 398.33 403.87 618.14 412.78 618.14 353.2 398.33 344.29 398.33"/><polygon class="cls-7" points="344.29 398.33 403.87 618.14 412.78 618.14 353.2 398.33 344.29 398.33"/><rect class="cls-16" x="365.53" y="555.83" width="112.95" height="9.2"/><rect class="cls-7" x="365.53" y="555.83" width="112.95" height="9.2"/><g class="cls-2"><path class="cls-15" d="M538.74,350l-73,269.19h-8.91l73-269.19c2.69-9.92-3.48-18-13.76-18H453.19c-10.27,0-20.83,8.07-23.52,18l-73,269.19h-8.91l73-269.19c4-14.69,19.54-26.6,34.76-26.6H518.4c15.22,0,24.32,11.91,20.34,26.6" transform="translate(0 -1)"/><path class="cls-7" d="M538.74,350l-73,269.19h-8.91l73-269.19c2.69-9.92-3.48-18-13.76-18H453.19c-10.27,0-20.83,8.07-23.52,18l-73,269.19h-8.91l73-269.19c4-14.69,19.54-26.6,34.76-26.6H518.4C533.62,323.35,542.72,335.26,538.74,350Z" transform="translate(0 -1)"/><path class="cls-3" d="M539.9,350l-18.11,66.84a14.26,14.26,0,0,1-13,10H405.42c-5.71,0-9.13-4.47-7.63-10L415.91,350a14.29,14.29,0,0,1,13-10H532.27c5.71,0,9.12,4.48,7.63,10" transform="translate(0 -1)"/></g><g class="cls-17"><g class="cls-9"><g class="cls-18"><g class="cls-4"><g class="cls-18"><path d="M539.9,350l-18.11,66.84a14.26,14.26,0,0,1-13,10H405.42c-5.71,0-9.13-4.47-7.63-10L415.91,350a14.29,14.29,0,0,1,13-10h53.42c23.09,23.71,20.15,67.29,18.64,80.46a14.4,14.4,0,0,0,10.31-9.65L529.45,344a9,9,0,0,0,.23-4h2.59c5.71,0,9.12,4.48,7.63,10" transform="translate(0 -1)"/></g></g></g></g></g><g class="cls-2"><path class="cls-7" d="M539.9,350l-18.11,66.84a14.26,14.26,0,0,1-13,10H405.42c-5.71,0-9.13-4.47-7.63-10L415.91,350a14.29,14.29,0,0,1,13-10H532.27C538,340.06,541.39,344.54,539.9,350Z" transform="translate(0 -1)"/><polygon class="cls-15" points="479.16 493.51 512.94 618.14 521.85 618.14 488.07 493.51 479.16 493.51"/><polygon class="cls-7" points="479.16 493.51 512.94 618.14 521.85 618.14 488.07 493.51 479.16 493.51"/><path class="cls-3" d="M488.11,480.21V492.4h-133V480.21a9,9,0,0,1,9-9H479.13a8.94,8.94,0,0,1,9,9" transform="translate(0 -1)"/></g><g class="cls-19"><g class="cls-9"><g class="cls-20"><g class="cls-4"><g class="cls-20"><path d="M487.8,477.86c-4.31,5.06-12,10.21-25.32,14.54H355.08V480.21a9,9,0,0,1,9-9H479.13a9,9,0,0,1,8.67,6.61" transform="translate(0 -1)"/></g></g></g></g></g><g class="cls-2"><path class="cls-7" d="M488.11,480.21V492.4h-133V480.21a9,9,0,0,1,9-9H479.13a8.94,8.94,0,0,1,9,9Z" transform="translate(0 -1)"/><path class="cls-16" d="M492.63,500.11H351.72a2.53,2.53,0,0,1-2.53-2.53v-6.39a2.53,2.53,0,0,1,2.53-2.52H492.63a2.52,2.52,0,0,1,2.52,2.52v6.39a2.52,2.52,0,0,1-2.52,2.53" transform="translate(0 -1)"/><rect class="cls-7" x="349.19" y="487.67" width="145.96" height="11.44" rx="2.52" ry="2.52"/><path class="cls-12" d="M350.76,489.09c-6.38,6.49,24.53,108.54,24.53,108.54-3.38,2.93-8.35,4.32-13.05,4.94a59.76,59.76,0,0,1-13,.2s-44.29-107.44-32.1-134.1,87.83-38.86,87.83-38.86l3.23-8,39.13-5.5,6.46,47.92s-6.42.62-16.08,1.86c-25.9,3.33-75.19,11.07-86.91,23" transform="translate(0 -1)"/></g><g class="cls-21"><g class="cls-22"><g class="cls-23"><path d="M375.29,597.63c-3.38,2.93-8.35,4.32-13.05,4.94-8.6-32-30.48-117.22-22.18-127.65,10.23-12.87,60.82-24.58,60.82-24.58.21-6.56,17.95-12.48,17.95-12.48l18.84,28.24c-25.9,3.33-75.19,11.07-86.91,23-6.38,6.5,24.53,108.54,24.53,108.54" transform="translate(0 -1)"/></g></g></g><g class="cls-2"><path class="cls-7" d="M350.76,489.09c-6.38,6.49,24.53,108.54,24.53,108.54-3.38,2.93-8.35,4.32-13.05,4.94a59.76,59.76,0,0,1-13,.2s-44.29-107.44-32.1-134.1,87.83-38.86,87.83-38.86l3.23-8,39.13-5.5,6.46,47.92s-6.42.62-16.08,1.86C411.77,469.43,362.48,477.17,350.76,489.09Z" transform="translate(0 -1)"/><path class="cls-6" d="M328.87,392.45c-6.5-1.12,39.74-41.65,39.74-41.65l22.28,15S353,392.52,347,393.25s-18.13-.8-18.13-.8" transform="translate(0 -1)"/></g><g class="cls-24"><g class="cls-9"><g class="cls-25"><g class="cls-4"><g class="cls-25"><path d="M328.87,392.45c-6.5-1.12,39.74-41.65,39.74-41.65l22.28,15S353,392.52,347,393.25s-18.13-.8-18.13-.8" transform="translate(0 -1)"/></g></g></g></g></g><g class="cls-2"><path class="cls-7" d="M328.87,392.45c-6.5-1.12,39.74-41.65,39.74-41.65l22.28,15S353,392.52,347,393.25,328.87,392.45,328.87,392.45Z" transform="translate(0 -1)"/><path class="cls-6" d="M337,375.4s9.69,2.41,12.65,4.47,2.13,9.36,2.13,9.36S338.85,385.54,337,375.4" transform="translate(0 -1)"/><path class="cls-7" d="M337,375.4s9.69,2.41,12.65,4.47,2.13,9.36,2.13,9.36S338.85,385.54,337,375.4Z" transform="translate(0 -1)"/><polygon class="cls-12" points="330.8 355.84 348.82 390.39 350.95 390.39 333.84 354.13 330.8 355.84"/><path class="cls-6" d="M347,381.82s-11.36-8.08-14.13-8.08-11.11,9.84-11.11,14.77S340,396.17,343.51,392c1.77-2.08-1.74-7.11-1.74-7.11s5.27,5.47,6.79,6.29,4.29-.25,4.29-.25-3.79-6-5.81-9.09" transform="translate(0 -1)"/><path class="cls-7" d="M347,381.82s-11.36-8.08-14.13-8.08-11.11,9.84-11.11,14.77S340,396.17,343.51,392c1.77-2.08-1.74-7.11-1.74-7.11s5.27,5.47,6.79,6.29,4.29-.25,4.29-.25S349.06,384.87,347,381.82Z" transform="translate(0 -1)"/><path class="cls-7" d="M341.77,393.15s-4.32-5.61-9.49-8.28" transform="translate(0 -1)"/><path class="cls-7" d="M341.77,384.87s-3.94-3.43-6.59-4.19" transform="translate(0 -1)"/><path class="cls-7" d="M329.38,389.23s6.37,3.35,7.94,4.77" transform="translate(0 -1)"/><path class="cls-3" d="M383.09,333.07c-5.83,4.06-31.93,30.91-31.93,30.91s12.24,13.91,23,15.93l29.06-14.11Z" transform="translate(0 -1)"/><path class="cls-7" d="M383.09,333.07c-5.83,4.06-31.93,30.91-31.93,30.91s12.24,13.91,23,15.93l29.06-14.11Z" transform="translate(0 -1)"/><g class="cls-26"><g class="cls-27"><path class="cls-6" d="M383.09,333.07c-5.83,4.06-31.93,30.91-31.93,30.91s12.24,13.91,23,15.93l29.06-14.11Z" transform="translate(0 -1)"/><path class="cls-7" d="M383.09,333.07c-5.83,4.06-31.93,30.91-31.93,30.91s12.24,13.91,23,15.93l29.06-14.11Z" transform="translate(0 -1)"/></g></g><path class="cls-3" d="M369,586.8l12.29,32.34s2.05,8.34-35.11,5.7l-20.48-1.75Z" transform="translate(0 -1)"/></g><g class="cls-28"><g class="cls-22"><g class="cls-29"><path d="M369,586.8l12.29,32.34s2.05,8.34-35.11,5.7l-20.48-1.75Z" transform="translate(0 -1)"/></g></g></g><g class="cls-2"><path class="cls-7" d="M369,586.8l12.29,32.34s2.05,8.34-35.11,5.7l-20.48-1.75Z" transform="translate(0 -1)"/><path class="cls-3" d="M364.36,602.31s2.64,12.58,0,22c0,0-39.21,6.14-48,3.8s-14.1-6.71-14.36-8.92c0,0,.31-6,9.09-7.76s26.28-2.92,33.19-12.87,20.07,3.8,20.07,3.8" transform="translate(0 -1)"/><path class="cls-7" d="M364.36,602.31s2.64,12.58,0,22c0,0-39.21,6.14-48,3.8s-14.1-6.71-14.36-8.92c0,0,.31-6,9.09-7.76s26.28-2.92,33.19-12.87S364.36,602.31,364.36,602.31Z" transform="translate(0 -1)"/><path class="cls-12" d="M416.12,420.57c12.53-17.87,70.13,3.64,70.13,3.64s5.5,43-17.45,54.49-56,10.86-65,20.17L367.48,606.25s-13.06,5.46-32.06-3.14c0,0,23.09-81.09,29.86-109.88,6.71-28.49,50.1-47.83,50.1-47.83a26.18,26.18,0,0,1-5-9" transform="translate(0 -1)"/><path class="cls-7" d="M416.12,420.57c12.53-17.87,70.13,3.64,70.13,3.64s5.5,43-17.45,54.49-56,10.86-65,20.17L367.48,606.25s-13.06,5.46-32.06-3.14c0,0,23.09-81.09,29.86-109.88,6.71-28.49,50.1-47.83,50.1-47.83a26.18,26.18,0,0,1-5-9" transform="translate(0 -1)"/><path class="cls-30" d="M474.44,461.69a59.46,59.46,0,0,1-5.81,4.56" transform="translate(0 -1)"/><path class="cls-30" d="M479.16,425.26c4.7,10.2,5.07,23.17-1.52,32.62" transform="translate(0 -1)"/><path class="cls-30" d="M466,426.87s-1.21,7.86,2.3,11,14.27,4.72,14.27,4.72" transform="translate(0 -1)"/><path class="cls-30" d="M418.81,427.25s.49,7.84-2.69,7.47-3.34,3.13-3.34,3.13" transform="translate(0 -1)"/><path class="cls-3" d="M383.85,339.1a27.05,27.05,0,0,1-.76-6s17.8-15,40.61-14.89c27.21.1,43.85,8.66,50.52,20.55,10.55,18.82,12,85.48,12,85.48s-68.29,10.53-78.09-2.39c-1.7-2.24-.4-18.13-.4-18.13s-7.65-20.05-9.26-35.61c0,0-2.95-4-6.26-9.62a92,92,0,0,1-6.3-12.73" transform="translate(0 -1)"/><path class="cls-7" d="M383.85,339.1a27.05,27.05,0,0,1-.76-6s17.8-15,40.61-14.89c27.21.1,43.85,8.66,50.52,20.55,10.55,18.82,12,85.48,12,85.48s-68.29,10.53-78.09-2.39c-1.7-2.24-.4-18.13-.4-18.13s-7.65-20.05-9.26-35.61c0,0-2.95-4-6.26-9.62a92,92,0,0,1-6.3-12.73" transform="translate(0 -1)"/><g class="cls-31"><g class="cls-32"><path class="cls-6" d="M383.85,339.1a27.05,27.05,0,0,1-.76-6s17.8-15,40.61-14.89c27.21.1,43.85,8.66,50.52,20.55,10.55,18.82,12,85.48,12,85.48s-68.29,10.53-78.09-2.39c-1.7-2.24-.4-18.13-.4-18.13s-7.65-20.05-9.26-35.61c0,0-2.95-4-6.26-9.62a92,92,0,0,1-6.3-12.73" transform="translate(0 -1)"/><path class="cls-7" d="M383.85,339.1a27.05,27.05,0,0,1-.76-6s17.8-15,40.61-14.89c27.21.1,43.85,8.66,50.52,20.55,10.55,18.82,12,85.48,12,85.48s-68.29,10.53-78.09-2.39c-1.7-2.24-.4-18.13-.4-18.13s-7.65-20.05-9.26-35.61c0,0-2.95-4-6.26-9.62a92,92,0,0,1-6.3-12.73" transform="translate(0 -1)"/></g></g><path class="cls-7" d="M410,355.13s10.43,40.47,8.82,49.36c-.79,4.41,1.52,9,1.52,9a9.46,9.46,0,0,0-1.52,10.92" transform="translate(0 -1)"/><path class="cls-7" d="M437.68,388.6a10.2,10.2,0,0,1-5.24-1.65l-3.09-13.55a57.3,57.3,0,0,0,18.31-1.28L451,387a50.7,50.7,0,0,1-5.68,1.23" transform="translate(0 -1)"/><path class="cls-3" d="M402.6,360.39s-8.81-37.81,13.52-42.21,27,6.07,25.68,13.17C440,340.79,421.48,364,421.48,364L410,355.13Z" transform="translate(0 -1)"/><path class="cls-7" d="M402.6,360.39s-8.81-37.81,13.52-42.21,27,6.07,25.68,13.17C440,340.79,421.48,364,421.48,364L410,355.13Z" transform="translate(0 -1)"/><g class="cls-26"><g class="cls-33"><path class="cls-6" d="M402.6,360.39s-8.81-37.81,13.52-42.21,27,6.07,25.68,13.17C440,340.79,421.48,364,421.48,364L410,355.13Z" transform="translate(0 -1)"/><path class="cls-7" d="M402.6,360.39s-8.81-37.81,13.52-42.21,27,6.07,25.68,13.17C440,340.79,421.48,364,421.48,364L410,355.13Z" transform="translate(0 -1)"/></g></g><path class="cls-30" d="M373.22,477.13s14.46-16.71,47.13-29.33c0,0-8.46-2.59-10.34-6.1" transform="translate(0 -1)"/><line class="cls-30" x1="356.21" y1="527.31" x2="342.97" y2="575.33"/><path class="cls-3" d="M458.39,389.91s6,10,30.29,9.07c0,0-6.68-7.62-16.63-10.32s-13.66,1.25-13.66,1.25" transform="translate(0 -1)"/><path class="cls-7" d="M458.39,389.91s6,10,30.29,9.07c0,0-6.68-7.62-16.63-10.32S458.39,389.91,458.39,389.91Z" transform="translate(0 -1)"/><path class="cls-6" d="M363.86,393.93s5.65-8.77,10.84-10.52,20.39-1.91,22.73-2,44.15,10.56,63.76,17.09l-1.71-32.73,26.36,2.08s-1.06,39.95-5.16,50.53-10,8-20,3.68c-39.4-17-62.48-28.8-64.62-28.16s-32.21,0-32.21,0" transform="translate(0 -1)"/><path class="cls-7" d="M363.86,393.93s5.65-8.77,10.84-10.52,20.39-1.91,22.73-2,44.15,10.56,63.76,17.09l-1.71-32.73,26.36,2.08s-1.06,39.95-5.16,50.53-10,8-20,3.68c-39.4-17-62.48-28.8-64.62-28.16S363.86,393.93,363.86,393.93Z" transform="translate(0 -1)"/><path class="cls-3" d="M452.9,346.78a24.44,24.44,0,0,0-.65,8.31c1.17,10.24,6.14,34.82,6.14,34.82S483,393.42,488.68,399c0,0,4.05-32.59-4.19-49.07s-16.8-18.35-16.8-18.35c-5.4-1.33-10.29,3.71-13.1,10.16" transform="translate(0 -1)"/><path class="cls-7" d="M452.9,346.78a24.44,24.44,0,0,0-.65,8.31c1.17,10.24,6.14,34.82,6.14,34.82S483,393.42,488.68,399c0,0,4.05-32.59-4.19-49.07s-16.8-18.35-16.8-18.35c-5.4-1.33-10.29,3.71-13.1,10.16" transform="translate(0 -1)"/><g class="cls-26"><g class="cls-34"><path class="cls-6" d="M452.9,346.78a24.44,24.44,0,0,0-.65,8.31c1.17,10.24,6.14,34.82,6.14,34.82S483,393.42,488.68,399c0,0,4.05-32.59-4.19-49.07s-16.8-18.35-16.8-18.35c-5.4-1.33-10.29,3.71-13.1,10.16" transform="translate(0 -1)"/><path class="cls-7" d="M452.9,346.78a24.44,24.44,0,0,0-.65,8.31c1.17,10.24,6.14,34.82,6.14,34.82S483,393.42,488.68,399c0,0,4.05-32.59-4.19-49.07s-16.8-18.35-16.8-18.35c-5.4-1.33-10.29,3.71-13.1,10.16" transform="translate(0 -1)"/></g></g><path class="cls-7" d="M380.7,359.43a32.54,32.54,0,0,0,12.58,6.37" transform="translate(0 -1)"/><path class="cls-7" d="M458.39,359.43s8.93,16.78,20.1,20.48" transform="translate(0 -1)"/><path class="cls-30" d="M400.89,488.67s1.63,1.24,2.29,5.72" transform="translate(0 -1)"/><path class="cls-30" d="M394.8,494.39a10.31,10.31,0,0,1,7.23,4.17" transform="translate(0 -1)"/><path class="cls-30" d="M345.88,477.13s4.74,2.39,3.71,9.18" transform="translate(0 -1)"/><path class="cls-30" d="M340.88,483s6.46,3.83,6.93,7.28" transform="translate(0 -1)"/><path class="cls-30" d="M415.81,441.57s14.39,2,17.61,0" transform="translate(0 -1)"/><path class="cls-6" d="M410,353.5a27.22,27.22,0,0,1-1.51-11,32.72,32.72,0,0,1,.4-3.77l-2.5-4-3.21-5.11,3.71-14.87s23.64,4.56,25.45,11.16S410,353.5,410,353.5" transform="translate(0 -1)"/></g><g class="cls-35"><g class="cls-9"><g class="cls-36"><g class="cls-4"><g class="cls-36"><path d="M408.5,342.51a32.72,32.72,0,0,1,.4-3.77l-2.5-4c4.1-.82,8.58-2.64,11.55-6.49,0,0,.79,10.26-9.45,14.22" transform="translate(0 -1)"/></g></g></g></g></g><g class="cls-2"><path class="cls-7" d="M410,353.5a27.22,27.22,0,0,1-1.51-11,32.72,32.72,0,0,1,.4-3.77l-2.5-4-3.21-5.11,3.71-14.87s23.64,4.56,25.45,11.16S410,353.5,410,353.5Z" transform="translate(0 -1)"/><path class="cls-6" d="M424.87,316.12c7.31-19.29,2.48-52-33-45.7-20.91,3.7-23.34,28.88-16.36,40.06s-.44,11.54,10,19.83c4.24,3.35,7.67,9.06,12.73,9.41,6,.43,13.73-5.27,19.47-11.42" transform="translate(0 -1)"/><path class="cls-7" d="M424.87,316.12c7.31-19.29,2.48-52-33-45.7-20.91,3.7-23.34,28.88-16.36,40.06s-.44,11.54,10,19.83c4.24,3.35,7.67,9.06,12.73,9.41,6,.43,13.73-5.27,19.47-11.42" transform="translate(0 -1)"/><path class="cls-7" d="M389.88,310.48s5.23-4.76,11.45-2.79" transform="translate(0 -1)"/><path class="cls-7" d="M380.06,310.48a9.21,9.21,0,0,0-6.78-4.59" transform="translate(0 -1)"/><path class="cls-6" d="M383.52,317.34s-.75,3.84-1.74,7.72,6.21,1.76,5.89,1.16" transform="translate(0 -1)"/><path class="cls-7" d="M383.52,317.34s-.75,3.84-1.74,7.72,6.21,1.76,5.89,1.16" transform="translate(0 -1)"/><path class="cls-7" d="M391.41,331.14A15.72,15.72,0,0,0,399.2,326" transform="translate(0 -1)"/><path class="cls-12" d="M397.16,315.35a1.62,1.62,0,1,1-2.05-1.53,1.84,1.84,0,0,1,2.05,1.53" transform="translate(0 -1)"/><path class="cls-12" d="M381.33,315c.29,1.07.07,2.07-.49,2.22s-1.25-.59-1.54-1.67-.08-2.07.48-2.22,1.26.59,1.55,1.67" transform="translate(0 -1)"/><path class="cls-12" d="M403,290.67s-5.51,14.4-19.12,14.07c0,0,4.72-3.59,6-7,0,0-10.47,10.37-20.95,5.1s-5.38-29.74,10.73-39.44,32.47-7.09,38,2.15c0,0,11.25-1,16.2,15.5,4.41,14.75-2.66,37.21-9.61,37.47-10.75.4-12.91-11.28-12.91-11.28A30.72,30.72,0,0,1,403,290.67" transform="translate(0 -1)"/><path class="cls-7" d="M403,290.67s-5.51,14.4-19.12,14.07c0,0,4.72-3.59,6-7,0,0-10.47,10.37-20.95,5.1s-5.38-29.74,10.73-39.44,32.47-7.09,38,2.15c0,0,11.25-1,16.2,15.5,4.41,14.75-2.66,37.21-9.61,37.47-10.75.4-12.91-11.28-12.91-11.28A30.72,30.72,0,0,1,403,290.67Z" transform="translate(0 -1)"/><path class="cls-6" d="M414.75,316.2s-.33-13.58,7.36-11.95,2.13,17.35-3.68,17.18" transform="translate(0 -1)"/><path class="cls-7" d="M414.75,316.2s-.33-13.58,7.36-11.95,2.13,17.35-3.68,17.18" transform="translate(0 -1)"/><path class="cls-3" d="M390.87,401.42H271.58a2.41,2.41,0,0,1-2.41-2.41v-4.15a2.41,2.41,0,0,1,2.41-2.41H390.87a2.41,2.41,0,0,1,2.41,2.41V399a2.41,2.41,0,0,1-2.41,2.41" transform="translate(0 -1)"/><rect class="cls-7" x="269.17" y="391.45" width="124.11" height="8.97" rx="2.41" ry="2.41"/></g><polygon class="cls-12" points="95.53 572.15 45.22 572.15 50.49 618.14 90.27 618.14 95.53 572.15"/><polygon class="cls-7" points="95.53 572.15 45.22 572.15 50.49 618.14 90.27 618.14 95.53 572.15"/><g class="cls-2"><path class="cls-3" d="M101.49,541.13s-22,1.73-22.89,18c0,0,22.26,10.24,22.89-18" transform="translate(0 -1)"/><path class="cls-7" d="M101.49,541.13s-22,1.73-22.89,18C78.6,559.08,100.86,569.32,101.49,541.13Z" transform="translate(0 -1)"/><path class="cls-3" d="M58,545.16s-12.28-16.6-32.12-8.09c0,0,12.12,20.07,32.12,8.09" transform="translate(0 -1)"/><path class="cls-7" d="M58,545.16s-12.28-16.6-32.12-8.09C25.91,537.07,38,557.14,58,545.16Z" transform="translate(0 -1)"/><path class="cls-3" d="M27.59,492.75s-3.53,31.94,25.54,23.14c0,0-9.23-23.47-25.54-23.14" transform="translate(0 -1)"/><path class="cls-7" d="M27.59,492.75s-3.53,31.94,25.54,23.14C53.13,515.89,43.9,492.42,27.59,492.75Z" transform="translate(0 -1)"/><path class="cls-3" d="M63.28,475s-23,12.4-6.08,31.2c0,0,16.12-13.43,6.08-31.2" transform="translate(0 -1)"/><path class="cls-7" d="M63.28,475s-23,12.4-6.08,31.2C57.2,506.18,73.32,492.75,63.28,475Z" transform="translate(0 -1)"/><path class="cls-3" d="M91.56,503.51s-25-2.52-25,20.62c0,0,25,1,25-20.62" transform="translate(0 -1)"/><path class="cls-7" d="M91.56,503.51s-25-2.52-25,20.62C66.57,524.13,91.56,525.11,91.56,503.51Z" transform="translate(0 -1)"/><path class="cls-7" d="M68,592.1s11.39-23.91.45-48.26S53.82,499,59.53,484.52" transform="translate(0 -1)"/><path class="cls-7" d="M83.35,509.73s-15,5.95-20.07,21.38" transform="translate(0 -1)"/><path class="cls-7" d="M35.49,505.53s8.66,11.79,23.33,10.52" transform="translate(0 -1)"/><path class="cls-7" d="M35.49,540.46s24,6.91,33.51,4.65" transform="translate(0 -1)"/><path class="cls-7" d="M94.33,548.43S83.61,560.19,72.83,560" transform="translate(0 -1)"/><rect class="cls-12" x="43.06" y="571.14" width="54.64" height="6.49"/><rect class="cls-7" x="43.06" y="571.14" width="54.64" height="6.49"/></g><g class="cls-2"><path class="cls-3" d="M494.16,530.41A101,101,0,0,0,462.8,563c-13,21.75-23.35,52.35-7.31,56.17l15.25-.58,29.35-10.08-3.08-6s-25.7,13.62-30.1,13.62-10.1,1.1-12.52-.66,8.45-41.3,31.69-54.48,8.08-30.6,8.08-30.6" transform="translate(0 -1)"/></g><g class="cls-37"><g class="cls-38"><g class="cls-39"><g class="cls-4"><g class="cls-39"><path d="M494.16,530.41A101,101,0,0,0,462.8,563c-13,21.75-23.35,52.35-7.31,56.17l15.25-.58,29.35-10.08-3.08-6s-25.7,13.62-30.1,13.62-10.1,1.1-12.52-.66,8.45-41.3,31.69-54.48,8.08-30.6,8.08-30.6" transform="translate(0 -1)"/></g></g></g></g></g><g class="cls-2"><path class="cls-7" d="M494.16,530.41A101,101,0,0,0,462.8,563c-13,21.75-23.35,52.35-7.31,56.17l15.25-.58,29.35-10.08-3.08-6s-25.7,13.62-30.1,13.62-10.1,1.1-12.52-.66,8.45-41.3,31.69-54.48S494.16,530.41,494.16,530.41Z" transform="translate(0 -1)"/><path class="cls-3" d="M510.85,516.19s0-6.37,9.67-7.25,11,8.44,11,8.44h-3.33s.08-5.58-7-6-6.83,6-6.83,6Z" transform="translate(0 -1)"/><path class="cls-7" d="M510.85,516.19s0-6.37,9.67-7.25,11,8.44,11,8.44h-3.33s.08-5.58-7-6-6.83,6-6.83,6Z" transform="translate(0 -1)"/><path class="cls-3" d="M496.57,619.14c-20.43,0-16.55-91.62-14.2-96.19s61.62-6.81,67.46-4.88,29.28,93.25,16.35,100.5Z" transform="translate(0 -1)"/></g><g class="cls-40"><g class="cls-9"><g class="cls-41"><g class="cls-4"><g class="cls-41"><path d="M496.57,619.14c-20.43,0-16.55-91.62-14.2-96.19s61.62-6.81,67.46-4.88,29.28,93.25,16.35,100.5Z" transform="translate(0 -1)"/></g></g></g></g></g><g class="cls-2"><path class="cls-7" d="M496.57,619.14c-20.43,0-16.55-91.62-14.2-96.19s61.62-6.81,67.46-4.88,29.28,93.25,16.35,100.5Z" transform="translate(0 -1)"/><path class="cls-3" d="M482.36,523c7.4,1.59,11.66,31.57,21.62,39.21s56.9,6,62.2,0-5.06-39.64-12.62-44.79-12.91-.14-34.13-2.5C488,511.37,482.36,523,482.36,523" transform="translate(0 -1)"/><path class="cls-7" d="M482.36,523c7.4,1.59,11.66,31.57,21.62,39.21s56.9,6,62.2,0-5.06-39.64-12.62-44.79-12.91-.14-34.13-2.5C488,511.37,482.36,523,482.36,523Z" transform="translate(0 -1)"/><path class="cls-3" d="M536.24,540.19l8.7,7.11a1.16,1.16,0,0,1,.12,1.68l-6.77,7.3a1.16,1.16,0,0,1-1.64.06L528,548.15a1.16,1.16,0,0,1,0-1.69l6.7-6.22a1.16,1.16,0,0,1,1.52,0" transform="translate(0 -1)"/></g><g class="cls-42"><g class="cls-9"><g class="cls-43"><g class="cls-4"><g class="cls-43"><path d="M536.24,540.19l8.7,7.11a1.16,1.16,0,0,1,.12,1.68l-6.77,7.3a1.16,1.16,0,0,1-1.64.06L528,548.15a1.16,1.16,0,0,1,0-1.69l6.7-6.22a1.16,1.16,0,0,1,1.52,0" transform="translate(0 -1)"/></g></g></g></g></g><g class="cls-2"><path class="cls-7" d="M536.24,540.19l8.7,7.11a1.16,1.16,0,0,1,.12,1.68l-6.77,7.3a1.16,1.16,0,0,1-1.64.06L528,548.15a1.16,1.16,0,0,1,0-1.69l6.7-6.22A1.16,1.16,0,0,1,536.24,540.19Z" transform="translate(0 -1)"/><path class="cls-3" d="M507.56,577.48s39.32,3.24,58.62-1.75a16.66,16.66,0,0,1,5.53,7.91c1.76,5.27,5.43,23.28-5.53,27.9s-50.27,3.73-55.55-1.54-3.07-32.52-3.07-32.52" transform="translate(0 -1)"/></g><g class="cls-44"><g class="cls-26"><g class="cls-45"><g class="cls-4"><g class="cls-45"><path d="M507.56,577.48s39.32,3.24,58.62-1.75a16.66,16.66,0,0,1,5.53,7.91c1.76,5.27,5.43,23.28-5.53,27.9s-50.27,3.73-55.55-1.54-3.07-32.52-3.07-32.52" transform="translate(0 -1)"/></g></g></g></g></g><g class="cls-2"><path class="cls-7" d="M507.56,577.48s39.32,3.24,58.62-1.75a16.66,16.66,0,0,1,5.53,7.91c1.76,5.27,5.43,23.28-5.53,27.9s-50.27,3.73-55.55-1.54S507.56,577.48,507.56,577.48Z" transform="translate(0 -1)"/><path class="cls-3" d="M507.56,577.48s4.61,12.45,7,14.36,53.49,1.9,59.15-2.71-2.1-13-7.56-13.4c0,0-35.77,4.17-58.62,1.75" transform="translate(0 -1)"/><path class="cls-7" d="M507.56,577.48s4.61,12.45,7,14.36,53.49,1.9,59.15-2.71-2.1-13-7.56-13.4C566.18,575.73,530.41,579.9,507.56,577.48Z" transform="translate(0 -1)"/><path class="cls-3" d="M491.08,574.85s1.32,26.14,4,32.07a13.75,13.75,0,0,1-12.68,0c-6.66-3.51-5.56-26-4.24-26s13-6.09,13-6.09" transform="translate(0 -1)"/></g><g class="cls-46"><g class="cls-26"><g class="cls-47"><g class="cls-4"><g class="cls-47"><path d="M491.08,574.85s1.32,26.14,4,32.07a13.75,13.75,0,0,1-12.68,0c-6.66-3.51-5.56-26-4.24-26s13-6.09,13-6.09" transform="translate(0 -1)"/></g></g></g></g></g><g class="cls-2"><path class="cls-7" d="M491.08,574.85s1.32,26.14,4,32.07a13.75,13.75,0,0,1-12.68,0c-6.66-3.51-5.56-26-4.24-26S491.08,574.85,491.08,574.85Z" transform="translate(0 -1)"/><path class="cls-3" d="M491.08,574.85l-9.9,2s-9.43,7.24-5.26,9.66,14.94-3.51,15.16-11.64" transform="translate(0 -1)"/><path class="cls-7" d="M491.08,574.85l-9.9,2s-9.43,7.24-5.26,9.66S490.86,583,491.08,574.85Z" transform="translate(0 -1)"/></g></g></svg>