<svg id="Layer_1" data-name="Layer 1" xmlns="http://www.w3.org/2000/svg" viewBox="0 0 535.08 395.06"><defs><style>.cls-1{fill:#fff;}</style></defs><title>pen</title><path class="cls-1" d="M559.71,279.55,527.53,232a45.65,45.65,0,0,0-63.34-12.19L105.76,462.56,34.69,583.06a15.92,15.92,0,0,0,16.13,23.82l138.27-21.27L547.52,342.89A45.67,45.67,0,0,0,559.71,279.55Zm-41.18-41.42,32.18,47.52a34.78,34.78,0,0,1-9.29,48.24l-35.76,24.22-71.14-105,35.77-24.22A34.78,34.78,0,0,1,518.53,238.13ZM110.14,476.54l67.6,99.82L89.2,590,64.63,553.7Zm7.23-8.71L385.75,286.09l71.13,105.05L188.51,572.88ZM394.75,280l30.77-20.83,71.13,105L465.89,385ZM49.17,596.13a5,5,0,0,1-5.11-7.54l14.46-24.52L77.3,591.8Z" transform="translate(-32.46 -212.01)"/></svg>