<svg id="Layer_1" data-name="Layer 1" xmlns="http://www.w3.org/2000/svg" viewBox="0 0 567 242.16"><defs><style>.cls-1{fill:#fff;}</style></defs><title>game-pad</title><path class="cls-1" d="M462.92,278.44H138.08A121.08,121.08,0,1,0,242.84,460.2H358.16A121.07,121.07,0,1,0,462.92,278.44ZM195.76,422.24H154.19v41.57H108.75V422.24H67.18V376.8h41.57V335.23h45.44V376.8h41.57ZM471,323.15l32.28,32.28L471,387.72l-32.29-32.29ZM394.6,399.52l32.29-32.29,32.29,32.29-32.29,32.29ZM471,475.9l-32.29-32.29L471,411.32l32.28,32.29Zm44.08-44.09-32.28-32.29,32.28-32.29,32.29,32.29Z" transform="translate(-17 -278.44)"/></svg>