<svg width="126" height="126" viewBox="0 0 126 126" fill="#3b3b3b" xmlns="http://www.w3.org/2000/svg">
<g clip-path="url(#clip0_301_2)">
<path d="M63 10.5C91.9485 10.5 115.5 34.0515 115.5 63C115.5 91.9485 91.9485 115.5 63 115.5C34.0515 115.5 10.5 91.9485 10.5 63C10.5 34.0515 34.0515 10.5 63 10.5ZM63 0C28.2083 0 0 28.2083 0 63C0 97.7917 28.2083 126 63 126C97.7917 126 126 97.7917 126 63C126 28.2083 97.7917 0 63 0ZM52.5 78.75H36.75V47.25H52.5V78.75ZM57.75 47.25V78.75L84 94.5V31.5L57.75 47.25Z" fill="#3b3b3b"/>
</g>
<defs>
<clipPath id="clip0_301_2">
<rect width="126" height="126" fill="#3b3b3b"/>
</clipPath>
</defs>
</svg>
