<svg id="Layer_1" data-name="Layer 1" xmlns="http://www.w3.org/2000/svg" viewBox="0 0 444.52 364.56"><defs><style>.cls-1{fill:#7aa999;}</style></defs><title>sprint-icon</title><rect class="cls-1" x="50.69" y="38.76" width="26.43" height="18.7" rx="4.73" ry="4.73"/><circle class="cls-1" cx="346.67" cy="40.66" r="40.66"/><path class="cls-1" d="M527.62,221.44A24.39,24.39,0,0,0,493.15,220l-45.66,42.09L324.59,146.81a25.81,25.81,0,0,0-35.18-.12L261,172.92H184.57a9.35,9.35,0,1,0,0,18.7h56.25L211.24,219a24.4,24.4,0,0,0,33.12,35.83L306.82,197,331,219.72l-53.11,51.86H101.22a9.76,9.76,0,0,0-9.76,9.76h0a9.76,9.76,0,0,0,9.76,9.76H257.91l-20,19.51H153.67a9.36,9.36,0,0,0-9.36,9.35h0a9.35,9.35,0,0,0,9.36,9.35h78.49L183.5,389.56,99,455A24.39,24.39,0,1,0,128.9,493.6l89-69L278,350.23l66.95,18.07-47.3,48.3a24.39,24.39,0,1,0,34.86,34.13l78.91-80.58A22.33,22.33,0,0,0,401.27,333l-39-10.51L401,285.39l28.71,26.93a25.79,25.79,0,0,0,35.14.16l61.38-56.57A24.4,24.4,0,0,0,527.62,221.44Z" transform="translate(-89.56 -134.16)"/></svg>