<svg id="Layer_1" data-name="Layer 1" xmlns="http://www.w3.org/2000/svg" viewBox="0 0 534.6 454.07"><defs><style>.cls-1{fill:#7aa999;}.cls-2{fill:#fbde5d;}</style></defs><title>audio-challenge-icon</title><path class="cls-1" d="M529.44,349.25c-.57-60.54-24.37-120.58-67.18-163.39a229.47,229.47,0,0,0-324.52,0c-43.21,43.21-67.06,102.3-67.2,163.39A48.43,48.43,0,0,0,32.7,396.49V524.32a48.4,48.4,0,0,0,48.41,48.4h40V348.12h0c0-98.63,80.25-178.88,178.88-178.88s178.88,80.25,178.88,178.88h0v224.6h40a48.4,48.4,0,0,0,48.41-48.4V396.49A48.42,48.42,0,0,0,529.44,349.25Z" transform="translate(-32.7 -118.65)"/><rect class="cls-1" x="115.4" y="227.04" width="39.63" height="227.04" rx="8.19" ry="8.19"/><rect class="cls-1" x="412.27" y="345.69" width="39.63" height="227.04" rx="8.19" ry="8.19" transform="translate(831.47 799.76) rotate(-180)"/><polygon class="cls-2" points="285.61 156.65 206.91 295.55 275.48 295.55 206.91 442.64 327.69 273.54 243.92 273.54 285.61 156.65"/></svg>