<svg id="Layer_1" data-name="Layer 1" xmlns="http://www.w3.org/2000/svg" viewBox="0 0 566.24 529.41"><defs><style>.cls-1{fill:#3b3b3d;}</style></defs><title>sound</title><path class="cls-1" d="M94.14,188.61v.65H43.86a23.52,23.52,0,0,0-23.52,23.52V384.53a23.52,23.52,0,0,0,23.52,23.52H94.14v.65L313.79,559.64a20.94,20.94,0,0,0,32.8-17.26V54.93a20.94,20.94,0,0,0-32.8-17.26Z" transform="translate(-20.34 -33.95)"/><path class="cls-1" d="M443.46,402.31a15.53,15.53,0,0,1-9.21-28.05,91.52,91.52,0,0,0-4.64-150.75,15.54,15.54,0,1,1,16.83-26.12,122.59,122.59,0,0,1,6.21,201.91A15.49,15.49,0,0,1,443.46,402.31Z" transform="translate(-20.34 -33.95)"/><path class="cls-1" d="M488.49,473.22a15.54,15.54,0,0,1-8.84-28.32,175.42,175.42,0,0,0-5-292.19,15.53,15.53,0,1,1,16.76-26.16,206.48,206.48,0,0,1,5.94,343.92A15.48,15.48,0,0,1,488.49,473.22Z" transform="translate(-20.34 -33.95)"/></svg>